<svg xmlns="http://www.w3.org/2000/svg" viewBox="0 0 40  40">
  <defs>
    <style>
      :root {
        --color01: hsl(24, 10%, 20%);
      }

      .cls-1 {
        fill: white;
      }

      .cls-2 {
        fill: var(--color01);
      }
    </style>
  </defs>
  <g id="Layer_2" data-name="Layer 2">
    <g id="Layer_1-2" data-name="Layer 1">
      <rect class="cls-1" width="40" height="40" />
      <path class="st0" d="M34.2,12.7c-1.9-1.7-4.4-2.6-7.6-2.6c-1.5,0-2.6,0-3.5,0c0.1-0.5,0.2-0.9,0.3-1.3c0.4-1.2,1.3-2,2.6-2.5
	l-0.1-0.3C25.5,6,25.1,6,24.7,6c-1.6,0-2.9,0.5-4,1.6c-1.3,1.3-2,2.9-2,5.1v6.5h-8.6v-7c0-0.3,0.1-0.6,0.3-0.9
	c0.3-0.5,0.8-0.8,1.5-0.8h0.4v-0.3H4v0.3h0.4c0.5,0,0.9,0.2,1.2,0.5c0.3,0.3,0.5,0.7,0.5,1.2v15.2c0,1.6-0.2,2.8-0.5,3.8
	C5.2,32.2,4.3,33,3,33.6l0.1,0.3C3.7,34,4.2,34,4.8,34c1.6,0,2.9-0.5,3.8-1.5c1.1-1.3,1.7-3,1.7-5.2v-7h8.6v6.9
	c0,0.5-0.2,0.9-0.5,1.2c-0.3,0.3-0.8,0.5-1.2,0.5h-0.3v0.3h3.4h2.3h4.1c3.2,0,5.8-0.9,7.6-2.6c1.9-1.7,2.8-4,2.8-7
	S36.1,14.4,34.2,12.7z M30.9,25.8c-1.1,1.5-2.7,2.3-4.6,2.3h-3.4V12.2c0-0.3,0-0.6,0.1-0.9h3.3c0,0,0,0,0.1,0c1.9,0,3.4,0.7,4.6,2.2
	c1.1,1.5,1.7,3.5,1.7,6.1C32.6,22.3,32,24.3,30.9,25.8z" />
    </g>
  </g>
</svg>